<svg width="106" height="26" viewBox="0 0 106 26" fill="none" xmlns="http://www.w3.org/2000/svg">
<rect width="106" height="26" rx="2.86567" fill="#3FBF6F" fill-opacity="0.8"/>
<path d="M21.5611 13L22.3891 11.569C22.4886 11.3968 22.5156 11.1922 22.4643 11.0001C22.413 10.808 22.2874 10.6441 22.1153 10.5445L20.6828 9.71651V8.06651C20.6828 7.8676 20.6038 7.67683 20.4631 7.53618C20.3225 7.39553 20.1317 7.31651 19.9328 7.31651H18.2836L17.4563 5.88476C17.3569 5.71251 17.1931 5.58679 17.0011 5.53526C16.9059 5.50976 16.8066 5.50326 16.709 5.51613C16.6113 5.529 16.5171 5.56099 16.4318 5.61026L14.9993 6.43826L13.5668 5.60951C13.3945 5.51006 13.1898 5.48311 12.9977 5.53459C12.8056 5.58607 12.6418 5.71176 12.5423 5.88401L11.7143 7.31651H10.0651C9.86614 7.31651 9.67538 7.39553 9.53472 7.53618C9.39407 7.67683 9.31505 7.8676 9.31505 8.06651V9.71576L7.88255 10.5438C7.79722 10.5931 7.72245 10.6587 7.66251 10.7369C7.60256 10.8152 7.55862 10.9044 7.5332 10.9997C7.50777 11.0949 7.50137 11.1942 7.51434 11.2919C7.52731 11.3896 7.55941 11.4837 7.6088 11.569L8.4368 13L7.6088 14.431C7.50979 14.6033 7.48293 14.8078 7.53407 14.9999C7.58521 15.1919 7.71021 15.356 7.8818 15.4563L9.3143 16.2843V17.9335C9.3143 18.1324 9.39332 18.3232 9.53397 18.4638C9.67462 18.6045 9.86539 18.6835 10.0643 18.6835H11.7143L12.5423 20.116C12.6087 20.2295 12.7035 20.3238 12.8174 20.3895C12.9313 20.4553 13.0603 20.4903 13.1918 20.491C13.3223 20.491 13.4521 20.4565 13.5676 20.3898L14.9986 19.5618L16.4311 20.3898C16.6032 20.4893 16.8079 20.5163 17 20.465C17.1921 20.4137 17.356 20.2881 17.4556 20.116L18.2828 18.6835H19.9321C20.131 18.6835 20.3217 18.6045 20.4624 18.4638C20.603 18.3232 20.6821 18.1324 20.6821 17.9335V16.2843L22.1146 15.4563C22.1999 15.407 22.2747 15.3413 22.3346 15.2631C22.3945 15.1849 22.4385 15.0956 22.4639 15.0004C22.4893 14.9052 22.4957 14.8059 22.4828 14.7082C22.4698 14.6105 22.4377 14.5163 22.3883 14.431L21.5611 13ZM13.1236 9.24251C13.422 9.24261 13.7082 9.36127 13.9192 9.57239C14.1302 9.78351 14.2487 10.0698 14.2486 10.3683C14.2485 10.6667 14.1298 10.9529 13.9187 11.1639C13.7076 11.3749 13.4213 11.4934 13.1228 11.4933C12.8243 11.4932 12.5381 11.3745 12.3272 11.1634C12.1162 10.9523 11.9977 10.666 11.9978 10.3675C11.9979 10.069 12.1166 9.78284 12.3277 9.57186C12.5388 9.36088 12.8251 9.24241 13.1236 9.24251ZM13.3486 16.4425L12.1486 15.5433L16.6486 9.54326L17.8486 10.4425L13.3486 16.4425ZM16.8736 16.7425C16.7258 16.7425 16.5794 16.7133 16.4429 16.6567C16.3064 16.6001 16.1824 16.5172 16.0779 16.4126C15.9734 16.3081 15.8906 16.184 15.8341 16.0475C15.7776 15.9109 15.7485 15.7645 15.7486 15.6168C15.7486 15.469 15.7778 15.3226 15.8344 15.1861C15.891 15.0496 15.9739 14.9256 16.0784 14.8211C16.183 14.7166 16.3071 14.6338 16.4436 14.5773C16.5802 14.5208 16.7265 14.4917 16.8743 14.4918C17.1728 14.4919 17.459 14.6105 17.67 14.8216C17.8809 15.0328 17.9994 15.319 17.9993 15.6175C17.9992 15.916 17.8805 16.2022 17.6694 16.4132C17.4583 16.6241 17.172 16.7426 16.8736 16.7425Z" fill="white"/>
<path d="M29.3325 8.57194H36.4107V10.1194H31.2525V12.8704H35.723V14.4036H31.2525V18H29.3325V8.57194ZM37.8619 8.35701L39.7103 7.98448V18H37.8619V8.35701ZM48.5985 10.9361V18H46.8074V17.083C46.5209 17.4269 46.1722 17.6991 45.7615 17.8997C45.3603 18.1003 44.9209 18.2006 44.4432 18.2006C43.8701 18.2006 43.3447 18.0621 42.8671 17.7851C42.3895 17.4985 42.0074 17.1021 41.7209 16.5958C41.4438 16.08 41.3053 15.4925 41.3053 14.8334C41.3053 14.0979 41.4821 13.434 41.8355 12.8418C42.1889 12.24 42.6665 11.7719 43.2683 11.4376C43.8701 11.1033 44.5244 10.9361 45.2313 10.9361C45.8235 10.9361 46.454 11.0603 47.1226 11.3087L48.5985 10.9361ZM45.0737 16.6961C45.3889 16.6961 45.6946 16.6293 45.9907 16.4955C46.2964 16.3618 46.5495 16.1564 46.7501 15.8794V12.8275C46.2821 12.5218 45.7853 12.369 45.26 12.369C44.6773 12.369 44.1901 12.5648 43.7985 12.9564C43.4164 13.3385 43.2253 13.8782 43.2253 14.5755C43.2253 15.2155 43.3925 15.7313 43.7268 16.123C44.0612 16.5051 44.5101 16.6961 45.0737 16.6961ZM53.7154 18.2579C53.0372 18.2579 52.3733 18.1672 51.7237 17.9857C51.0742 17.7946 50.5345 17.5606 50.1046 17.2836L50.6204 16.1516C51.0216 16.3809 51.4945 16.5672 52.039 16.7104C52.593 16.8442 53.1327 16.911 53.6581 16.911C54.1166 16.911 54.4748 16.849 54.7327 16.7248C55.0001 16.591 55.1339 16.3952 55.1339 16.1373C55.1339 15.9749 55.0766 15.8507 54.9619 15.7648C54.8473 15.6788 54.6754 15.6119 54.4461 15.5642C54.2264 15.5164 53.873 15.4543 53.3858 15.3779C52.3542 15.2155 51.5852 14.9815 51.079 14.6758C50.5727 14.3701 50.3196 13.8925 50.3196 13.243C50.3196 12.5266 50.6109 11.9582 51.1936 11.5379C51.7763 11.1176 52.5643 10.9075 53.5578 10.9075C54.0545 10.9075 54.556 10.9648 55.0622 11.0794C55.5685 11.1845 56.0175 11.3278 56.4091 11.5093V12.9564C56.0557 12.7272 55.621 12.5457 55.1052 12.4119C54.5894 12.2782 54.0784 12.2113 53.5721 12.2113C53.104 12.2113 52.7315 12.283 52.4545 12.4263C52.1775 12.56 52.039 12.751 52.039 12.9994C52.039 13.2191 52.1536 13.3767 52.3828 13.4722C52.6216 13.5582 53.0658 13.6537 53.7154 13.7588C54.3745 13.8543 54.9237 13.9737 55.3631 14.117C55.8025 14.2507 56.1607 14.4657 56.4378 14.7618C56.7148 15.0579 56.8533 15.4543 56.8533 15.951C56.8533 16.6579 56.5715 17.2215 56.0079 17.6418C55.4539 18.0525 54.6897 18.2579 53.7154 18.2579ZM62.9011 10.9648C63.6653 10.9648 64.2862 11.2131 64.7638 11.7099C65.2509 12.2066 65.4945 12.9373 65.4945 13.9021V18H63.6462V14.4466C63.6462 13.1666 63.1685 12.5266 62.2133 12.5266C61.4969 12.5266 60.8569 12.8943 60.2933 13.6299V18H58.445V8.35701L60.2933 7.98448V12.154C60.6181 11.7719 61.0097 11.4806 61.4682 11.28C61.9268 11.0699 62.4044 10.9648 62.9011 10.9648ZM74.1025 18.2579C73.4243 18.2579 72.7604 18.1672 72.1109 17.9857C71.4613 17.7946 70.9216 17.5606 70.4918 17.2836L71.0076 16.1516C71.4088 16.3809 71.8816 16.5672 72.4261 16.7104C72.9801 16.8442 73.5198 16.911 74.0452 16.911C74.5037 16.911 74.8619 16.849 75.1198 16.7248C75.3873 16.591 75.521 16.3952 75.521 16.1373C75.521 15.9749 75.4637 15.8507 75.3491 15.7648C75.2344 15.6788 75.0625 15.6119 74.8332 15.5642C74.6135 15.5164 74.2601 15.4543 73.7729 15.3779C72.7413 15.2155 71.9723 14.9815 71.4661 14.6758C70.9598 14.3701 70.7067 13.8925 70.7067 13.243C70.7067 12.5266 70.998 11.9582 71.5807 11.5379C72.1634 11.1176 72.9515 10.9075 73.9449 10.9075C74.4416 10.9075 74.9431 10.9648 75.4494 11.0794C75.9556 11.1845 76.4046 11.3278 76.7962 11.5093V12.9564C76.4428 12.7272 76.0082 12.5457 75.4923 12.4119C74.9765 12.2782 74.4655 12.2113 73.9592 12.2113C73.4912 12.2113 73.1186 12.283 72.8416 12.4263C72.5646 12.56 72.4261 12.751 72.4261 12.9994C72.4261 13.2191 72.5407 13.3767 72.77 13.4722C73.0088 13.5582 73.4529 13.6537 74.1025 13.7588C74.7616 13.8543 75.3109 13.9737 75.7503 14.117C76.1897 14.2507 76.5479 14.4657 76.8249 14.7618C77.1019 15.0579 77.2404 15.4543 77.2404 15.951C77.2404 16.6579 76.9586 17.2215 76.395 17.6418C75.841 18.0525 75.0768 18.2579 74.1025 18.2579ZM85.5807 10.9361V18H83.7897V17.083C83.5031 17.4269 83.1545 17.6991 82.7437 17.8997C82.3425 18.1003 81.9031 18.2006 81.4255 18.2006C80.8524 18.2006 80.327 18.0621 79.8494 17.7851C79.3718 17.4985 78.9897 17.1021 78.7031 16.5958C78.4261 16.08 78.2876 15.4925 78.2876 14.8334C78.2876 14.0979 78.4643 13.434 78.8178 12.8418C79.1712 12.24 79.6488 11.7719 80.2506 11.4376C80.8524 11.1033 81.5067 10.9361 82.2136 10.9361C82.8058 10.9361 83.4363 11.0603 84.1049 11.3087L85.5807 10.9361ZM82.056 16.6961C82.3712 16.6961 82.6769 16.6293 82.973 16.4955C83.2787 16.3618 83.5318 16.1564 83.7324 15.8794V12.8275C83.2643 12.5218 82.7676 12.369 82.2422 12.369C81.6596 12.369 81.1724 12.5648 80.7807 12.9564C80.3987 13.3385 80.2076 13.8782 80.2076 14.5755C80.2076 15.2155 80.3748 15.7313 80.7091 16.123C81.0434 16.5051 81.4924 16.6961 82.056 16.6961ZM87.7173 8.35701L89.5657 7.98448V18H87.7173V8.35701ZM98.4252 16.9684C97.9954 17.3504 97.4939 17.6609 96.9207 17.8997C96.3572 18.129 95.7363 18.2436 95.0581 18.2436C94.3034 18.2436 93.63 18.1003 93.0378 17.8137C92.4551 17.5272 91.9966 17.1212 91.6622 16.5958C91.3375 16.0609 91.1751 15.44 91.1751 14.7331C91.1751 14.0167 91.347 13.3672 91.6909 12.7845C92.0348 12.2018 92.5028 11.7433 93.0951 11.409C93.6969 11.0746 94.3655 10.9075 95.101 10.9075C95.741 10.9075 96.3094 11.0364 96.8061 11.2943C97.3124 11.5522 97.704 11.9152 97.981 12.3833C98.2581 12.8418 98.3966 13.3719 98.3966 13.9737C98.3966 14.3654 98.3345 14.7188 98.2103 15.034H93.0091C93.1142 15.5976 93.3769 16.0322 93.7972 16.3379C94.2175 16.6436 94.7619 16.7964 95.4306 16.7964C96.233 16.7964 97.0067 16.5337 97.7518 16.0084L98.4252 16.9684ZM95.0867 12.2113C94.6091 12.2113 94.184 12.3499 93.8115 12.6269C93.439 12.8943 93.1858 13.2764 93.0521 13.7731H96.7631C96.7249 13.2955 96.5578 12.9182 96.2616 12.6412C95.9655 12.3546 95.5739 12.2113 95.0867 12.2113Z" fill="white"/>
</svg>
